<svg width="380" height="64" viewBox="0 0 380 64" fill="none" xmlns="http://www.w3.org/2000/svg">
    <path
        d="M241.105 5.34409C244.98 5.34409 248.44 5.99765 251.475 7.30405C254.509 8.61043 256.998 10.5046 258.941 12.9867C260.884 15.4688 262.16 18.5388 262.793 22.1966L249.826 25.0921C249.51 21.957 248.614 19.649 247.152 18.1576C245.689 16.6663 243.539 15.9262 240.712 15.9261C238.3 15.9261 236.204 16.5576 234.425 17.8421C232.646 19.1158 231.15 20.7811 229.95 22.8167L229.939 22.8392C228.738 24.8749 227.865 27.0955 227.308 29.5013C226.751 31.9072 226.479 34.1501 226.479 36.556C226.479 38.9619 226.893 41.0091 227.734 42.7074C228.574 44.4055 229.796 45.7341 231.39 46.6703C232.984 47.6174 234.883 48.0853 237.088 48.0853C239.762 48.0853 241.858 47.3878 243.375 46.0052C244.892 44.6227 246.181 42.8053 247.229 40.5628L259.333 45.265C257.074 49.391 254.094 52.6579 250.372 55.0638C246.65 57.4697 241.935 58.6663 236.226 58.6664C231.772 58.6664 227.799 57.7739 224.285 55.9994C220.781 54.214 217.998 51.6559 215.956 48.3138C213.915 44.9608 212.889 40.9653 212.889 36.3167C212.889 31.9186 213.522 27.8575 214.778 24.1234C216.033 20.3895 217.867 17.1021 220.279 14.2826C222.691 11.4629 225.638 9.26332 229.12 7.69565C232.602 6.12812 236.597 5.3441 241.105 5.34409ZM33.3089 5.33334C37.664 5.33334 41.5608 6.22645 45.0208 8.03354C48.481 9.84071 51.2326 12.4204 53.2738 15.7953C55.3149 19.1701 56.3402 23.2856 56.3402 28.141C56.3402 32.4302 55.7288 36.4145 54.4954 40.0941C53.262 43.7846 51.4502 47.0179 49.0706 49.8158C46.6802 52.6136 43.7661 54.7806 40.306 56.3265C36.8459 57.8615 32.7414 58.6341 28.4408 58.6341C24.1402 58.6341 20.2435 57.7416 16.7288 55.9671C13.2251 54.1926 10.4419 51.5905 8.40072 48.1722C6.35956 44.7538 5.33334 40.6384 5.33334 35.8265C5.33336 31.5373 5.94465 27.5417 7.17806 23.8294C8.41149 20.1172 10.2234 16.8729 12.6029 14.1078C14.9824 11.3426 17.9188 9.18684 21.4007 7.64096C24.8826 6.10604 28.9539 5.33338 33.3089 5.33334ZM280.79 36.763C280.266 39.2234 280.289 41.2808 280.834 42.9574C281.391 44.623 282.384 45.8971 283.825 46.7572C285.265 47.6172 287.056 48.0521 289.206 48.0521C292.088 48.052 294.336 47.1812 295.962 45.4613C297.589 43.7412 298.768 41.2048 299.499 37.8626L306.889 6.11752H320.326L312.86 38.2542C311.288 44.9495 308.515 50.0122 304.531 53.4632C300.547 56.9141 295.045 58.6341 288.027 58.6341C282.842 58.6341 278.52 57.698 275.06 55.8148C271.611 53.9314 269.199 51.2094 267.834 47.6605C266.47 44.1006 266.36 39.8435 267.517 34.8792L274.274 6.11752H287.787L280.79 36.763ZM74.722 6.11752L77.0794 37.0785L77.2982 41.9994L79.8958 31.9837H89.7191L96.4212 6.11752H110.11L103.397 31.9837H93.5833L86.8812 57.8499H67.5619L61.8314 6.11752H74.722ZM157.558 16.5462H130.761L128.327 27.0414H149.47L147.189 36.8392H126.046L123.612 47.4212H151.271L148.837 57.8499H107.654L119.682 6.11752H160.079L157.558 16.5462ZM191.12 6.11752C196.469 6.11752 200.693 7.40174 203.815 9.99252V10.0033C206.926 12.5834 208.487 16.2092 208.487 20.8578C208.487 24.6136 207.614 27.8036 205.857 30.4164C204.099 33.0291 201.73 35.0535 198.74 36.4906C197.812 36.9369 196.84 37.2968 195.836 37.6234L204.077 57.8499H190.401L183.491 39.5824H174.376L170.13 57.8499H156.847L168.875 6.11752H191.12ZM371.564 16.5462H354.82L345.236 57.8499H331.723L341.306 16.5462H324.41L326.843 6.11752H373.997L371.564 16.5462ZM32.763 15.9154C30.4601 15.9155 28.4407 16.5463 26.7161 17.7982C24.9915 19.0501 23.5509 20.7053 22.3939 22.7738C21.237 24.8312 20.3747 27.0845 19.7962 29.5121C19.2177 31.9398 18.9339 34.3571 18.9339 36.763C18.9339 39.1689 19.3267 41.2047 20.1126 42.8812C20.8985 44.5576 22.0335 45.8313 23.5286 46.724C25.024 47.6058 26.8147 48.0521 28.9105 48.0521C31.2681 48.0521 33.2986 47.4212 35.0013 46.1693C36.7041 44.9173 38.1226 43.2621 39.2796 41.1937C40.4366 39.1253 41.2988 36.8718 41.8773 34.4115H41.889C42.4675 31.962 42.7513 29.6104 42.7513 27.2044C42.7513 24.7985 42.3575 22.7628 41.5716 21.0863C40.7858 19.41 39.6512 18.1362 38.1888 17.2435C36.7152 16.3617 34.9133 15.9154 32.763 15.9154ZM176.604 30.0355H185.685C187.737 30.0355 189.451 29.687 190.837 29.0121C192.234 28.3263 193.292 27.3787 194.024 26.1488L194.002 26.1595C194.734 24.9293 195.105 23.5793 195.105 22.1205C195.105 20.0847 194.428 18.6043 193.064 17.6898C191.71 16.7753 189.952 16.3177 187.802 16.3177H179.79L176.604 30.0355Z"
        fill="#000000" />
</svg>